<svg width="360px" height="360px" viewBox="0 0 360 360" version="1.1" xmlns="http://www.w3.org/2000/svg" xmlns:xlink="http://www.w3.org/1999/xlink">
    <defs></defs>
    <g id="Page-1" stroke="none" stroke-width="1" fill="none" fill-rule="evenodd">
        <path d="M0,1024 C128,640 463.008,0 1024,0 C973.35856,40.6289884 927.982278,91.7123656 886.350468,147.71791 C882.026561,153.534683 757.877715,157.485185 753.632888,163.401952 C749.704541,168.877583 865.674659,176.312746 861.81123,181.863795 C837.029115,217.471216 813.554789,254.529156 791.03185,291.741038 C787.527907,297.530172 626.935783,300.977983 623.47655,306.769687 C620.001124,312.588503 773.658793,320.751201 770.225782,326.562732 C750.440963,360.055219 731.33791,393.344511 712.656135,425.482954 C709.872071,430.272407 570.789705,433.837704 568.023491,438.572902 C564.819305,444.057821 697.934172,450.702836 694.751438,456.105879 C678.831137,483.13235 663.162459,509.073528 647.577709,533.319338 C643.761506,539.256356 467.151254,541.568492 463.342654,547.293243 C459.118884,553.64204 627.697356,563.378021 623.47655,569.442518 C567.614139,649.706186 511.717169,704 448,704 C256,704 256,704 256,704 L64,1024 L0,1024 Z" id="Shape" fill="#1890FF" fill-rule="nonzero"></path>
    </g>
</svg>