<svg xmlns="http://www.w3.org/2000/svg" xmlns:xlink="http://www.w3.org/1999/xlink" width="360px" height="360px" viewBox="0 0 360 360" version="1.1">
    <defs/>
    <g id="Page-1" stroke="none" stroke-width="1" fill="none" fill-rule="evenodd">
        <path d="M0,1024 C128,640 463.008,0 1024,0 C965.502841,46.9315329 914.031047,107.812484 867.240788,174.116062 C861.90947,181.670742 713.350683,187.436675 708.137454,195.119541 C703.028467,202.648783 841.262769,212.09267 836.260603,219.721037 C823.037625,239.886245 810.176469,260.356308 797.616854,280.911937 C792.381753,289.479938 575.72027,291.870617 570.585583,300.452469 C565.48451,308.978141 771.909607,323.695001 766.89905,332.203099 C756.38778,350.051597 746.066265,367.827163 735.894991,385.386044 C731.056649,393.738575 558.065342,395.174637 553.290739,403.413633 C548.819066,411.129895 712.560444,425.657015 708.137454,433.247409 C695.595207,454.771447 683.234646,475.738315 670.976102,495.858173 C662.072312,510.471897 456.826679,515.479379 448,529.088345 C438.663482,543.483379 625.748687,566.413584 616.428158,579.428733 C562.898982,654.176657 509.037639,704 448,704 C256,704 256,704 256,704 L64,1024 L0,1024 Z" id="Shape" fill="#1890FF" fill-rule="nonzero"/>
    </g>
</svg>